<svg width="28" height="30" viewBox="0 0 28 30" fill="none" xmlns="http://www.w3.org/2000/svg">
<path d="M18.9 6C18.6705 4.86971 18.0573 3.85353 17.1642 3.12363C16.2712 2.39372 15.1534 1.995 14 1.995C12.8466 1.995 11.7288 2.39372 10.8358 3.12363C9.94274 3.85353 9.32949 4.86971 9.09998 6H4L5 22H23L24 6H18.9ZM14 4C14.6183 4.00256 15.2206 4.19607 15.7247 4.55408C16.2287 4.91208 16.6099 5.41709 16.816 6H11.184C11.3901 5.41709 11.7713 4.91208 12.2753 4.55408C12.7794 4.19607 13.3817 4.00256 14 4ZM21.121 20H6.87903L6.12903 8H9V10H11V8H17V10H19V8H21.871L21.121 20Z" fill="currentColor"/>
</svg>
