<svg width="32" height="32" viewBox="0 0 32 32" fill="none" xmlns="http://www.w3.org/2000/svg">#
<path d="M25.7078 20.293L21.1718 15.757C22.5167 14.0515 23.1591 11.8967 22.9676 9.73324C22.7762 7.5698 21.7653 5.56125 20.1419 4.11847C18.5185 2.67568 16.4052 1.9077 14.2342 1.97158C12.0633 2.03547 9.9988 2.92643 8.46304 4.46218C6.92728 5.99794 6.03633 8.06244 5.97244 10.2334C5.90855 12.4043 6.67656 14.5177 8.11935 16.1411C9.56214 17.7645 11.5707 18.7753 13.7341 18.9667C15.8975 19.1582 18.0524 18.5158 19.7578 17.171L24.2938 21.707L25.7078 20.293ZM14.5008 17C13.2152 17 11.9585 16.6187 10.8896 15.9045C9.82069 15.1903 8.9876 14.1751 8.49563 12.9874C8.00366 11.7997 7.87489 10.4927 8.1257 9.23187C8.3765 7.97099 8.99559 6.81282 9.90463 5.90377C10.8137 4.99473 11.9719 4.37568 13.2328 4.12487C14.4936 3.87407 15.8005 4.00278 16.9882 4.49475C18.176 4.98672 19.1911 5.81984 19.9054 6.88876C20.6196 7.95768 21.0008 9.21439 21.0008 10.5C20.9987 12.2232 20.3132 13.8753 19.0947 15.0938C17.8762 16.3123 16.2241 16.9978 14.5008 17Z" fill="currentColor"/>
</svg>
