<svg width="48" height="48" viewBox="0 0 48 48" fill="none" xmlns="http://www.w3.org/2000/svg">
<circle cx="24" cy="24" r="23.7" fill="white" fill-opacity="0.8" stroke="#CCD1D8" stroke-width="0.6"/>
<path d="M16.5137 17.4844V28.3145C16.5137 29.1283 16.5495 29.6491 16.6211 29.877C16.6927 30.0983 16.8424 30.2806 17.0703 30.4238C17.2982 30.5671 17.6628 30.6387 18.1641 30.6387H18.4668V31H11.4941V30.6387H11.8457C12.4121 30.6387 12.8158 30.5736 13.0566 30.4434C13.2975 30.3132 13.4603 30.1341 13.5449 29.9062C13.6296 29.6784 13.6719 29.1478 13.6719 28.3145V21.4492C13.6719 20.8372 13.6426 20.4564 13.584 20.3066C13.5254 20.1504 13.4147 20.0202 13.252 19.916C13.0957 19.8053 12.9134 19.75 12.7051 19.75C12.373 19.75 11.9694 19.8542 11.4941 20.0625L11.3184 19.7109L16.1914 17.4844H16.5137ZM20.6152 31.2734V31C21.696 30.7526 22.6107 30.388 23.3594 29.9062C24.1146 29.4245 24.7103 28.8288 25.1465 28.1191C25.5892 27.4095 25.8984 26.5924 26.0742 25.668C25.6706 25.8763 25.3255 26.0228 25.0391 26.1074C24.7591 26.1855 24.4629 26.2246 24.1504 26.2246C23.1478 26.2246 22.3112 25.8633 21.6406 25.1406C20.9766 24.418 20.6445 23.4284 20.6445 22.1719C20.6445 21.2995 20.8236 20.502 21.1816 19.7793C21.5462 19.0501 22.0638 18.487 22.7344 18.0898C23.4049 17.6862 24.1016 17.4844 24.8242 17.4844C25.599 17.4844 26.3314 17.7057 27.0215 18.1484C27.7116 18.5911 28.2617 19.2324 28.6719 20.0723C29.082 20.9121 29.2871 21.8691 29.2871 22.9434C29.2871 24.3366 28.9518 25.6712 28.2812 26.9473C27.6172 28.2233 26.6243 29.2487 25.3027 30.0234C23.9811 30.7917 22.4186 31.2083 20.6152 31.2734ZM26.2207 24.8477C26.2858 24.1185 26.3184 23.4772 26.3184 22.9238C26.3184 21.7389 26.1816 20.6354 25.9082 19.6133C25.752 19.0469 25.5208 18.6302 25.2148 18.3633C25.0521 18.2201 24.8405 18.1484 24.5801 18.1484C24.2546 18.1484 24.0007 18.2884 23.8184 18.5684C23.5645 18.9525 23.4375 19.6849 23.4375 20.7656C23.4375 22.569 23.6523 23.8125 24.082 24.4961C24.362 24.9388 24.7396 25.1602 25.2148 25.1602C25.4688 25.1602 25.804 25.056 26.2207 24.8477Z" fill="#1B1E23"/>
<path fill-rule="evenodd" clip-rule="evenodd" d="M38 24.5H32V23.5H38V24.5Z" fill="#1B1E23"/>
<path fill-rule="evenodd" clip-rule="evenodd" d="M34.5 27L34.5 21L35.5 21L35.5 27L34.5 27Z" fill="#1B1E23"/>
</svg>
